<?xml version="1.0" encoding="UTF-8"?>
<svg
  width="310px"
  height="310px"
  viewBox="0 0 310 310"
  version="1.1"
  xmlns="http://www.w3.org/2000/svg"
  xmlns:xlink="http://www.w3.org/1999/xlink"
>
<style>
    path {
      fill: #093651;
    }
    @media (prefers-color-scheme: dark) {
      path {
        fill: #fff;
      }
    }
  </style>
  <title>Artboard</titl
    e>
  <g id="Artboard" stroke="none" stroke-width="1" fill="none" fill-rule="evenodd">
    <path
      d="M152.106818,264.689321 C171.280932,264.689321 188.47511,259.478964 203.689352,249.05825 C218.903594,238.637536 229.741137,224.777987 236.20198,207.479602 C240.161851,197.058888 242.141787,185.179274 242.141787,171.84076 L242.141787,171.84076 L242.141787,151.207746 L146.792254,151.207746 L146.792254,252.809707 C131.99484,251.767636 118.656326,246.974108 106.776712,238.429122 C94.8970983,229.884137 86.0394914,218.83818 80.2038916,205.291252 C76.035606,195.704195 73.9514632,183.511959 73.9514632,168.714546 L73.9514632,168.714546 L73.9514632,127.448518 C73.9514632,113.276347 77.4945059,100.198351 84.5805914,88.2145303 C91.6666769,76.2307092 101.20163,66.7478595 113.185451,59.7659811 C125.169272,52.7841028 138.143061,49.2931636 152.106818,49.2931636 C176.07446,49.2931636 195.040159,56.5876634 209.003916,71.1766629 C214.631102,77.220677 219.268319,83.9941411 222.915569,91.4970552 C226.562819,98.9999692 228.490651,106.60709 228.699066,114.318419 L228.699066,114.318419 L239.953437,114.318419 C239.953437,105.356605 237.921397,96.4989979 233.857319,87.7455981 C229.793241,78.9921984 224.53078,71.0724558 218.069937,63.9863703 C210.150195,55.4413848 200.563138,48.9284386 189.308767,44.4475316 C178.054396,39.9666246 165.653746,37.7261711 152.106818,37.7261711 C135.850504,37.7261711 120.844676,41.738146 107.089334,49.7620957 C93.3339912,57.7860455 82.4443451,68.6756916 74.4203953,82.431034 C66.3964456,96.1863764 62.3844707,111.192205 62.3844707,127.448518 L62.3844707,127.448518 L62.3844707,168.714546 C62.3844707,184.762445 64.885442,198.621995 69.8873847,210.293194 C76.765056,226.757922 87.6547021,239.940126 102.556323,249.839804 C117.457944,259.739482 133.974776,264.689321 152.106818,264.689321 Z M158.046625,252.809707 L158.046625,162.462117 L230.574794,162.462117 L230.574794,171.84076 C230.574794,184.137202 228.699066,195.183159 224.947609,204.97863 C219.320423,218.942387 210.51492,230.144654 198.531099,238.585433 C186.547278,247.026211 173.052453,251.767636 158.046625,252.809707 L158.046625,252.809707 Z"
      id="G"
      fill-rule="nonzero"
    ></path>
  </g>
</svg>
